<?xml version="1.0" encoding="UTF-8" standalone="no"?>
<!-- Created with Inkscape (http://www.inkscape.org/) -->

<svg
   xmlns:dc="http://purl.org/dc/elements/1.1/"
   xmlns:cc="http://creativecommons.org/ns#"
   xmlns:rdf="http://www.w3.org/1999/02/22-rdf-syntax-ns#"
   xmlns:svg="http://www.w3.org/2000/svg"
   xmlns="http://www.w3.org/2000/svg"
   xmlns:sodipodi="http://sodipodi.sourceforge.net/DTD/sodipodi-0.dtd"
   xmlns:inkscape="http://www.inkscape.org/namespaces/inkscape"
   sodipodi:docname="engraving.svg"
   inkscape:version="0.46+devel"
   version="1.1"
   id="svg3088"
   height="1488.189"
   width="1052.3622"
   inkscape:export-filename="C:\_diary\2010-pub\20100228\pegasus-02.png"
   inkscape:export-xdpi="106.05293"
   inkscape:export-ydpi="106.05293">
  <sodipodi:namedview
     id="base"
     pagecolor="#ffffff"
     bordercolor="#666666"
     borderopacity="1.0"
     inkscape:pageopacity="0.0"
     inkscape:pageshadow="2"
     inkscape:zoom="2.2919866"
     inkscape:cx="816.36545"
     inkscape:cy="546.01357"
     inkscape:document-units="px"
     inkscape:current-layer="layer1"
     showgrid="true"
     inkscape:window-width="1440"
     inkscape:window-height="825"
     inkscape:window-x="0"
     inkscape:window-y="25"
     inkscape:window-maximized="1"
     inkscape:object-nodes="true"
     gridtolerance="10">
    <inkscape:grid
       snapvisiblegridlinesonly="true"
       enabled="true"
       visible="true"
       empspacing="5"
       id="grid2852"
       type="xygrid" />
  </sodipodi:namedview>
  <defs
     id="defs3090">
    <inkscape:path-effect
       is_visible="true"
       id="path-effect2864"
       effect="spiro" />
    <inkscape:path-effect
       is_visible="true"
       id="path-effect2860"
       effect="spiro" />
    <inkscape:perspective
       sodipodi:type="inkscape:persp3d"
       inkscape:vp_x="0 : 526.18109 : 1"
       inkscape:vp_y="0 : 1000 : 0"
       inkscape:vp_z="744.09448 : 526.18109 : 1"
       inkscape:persp3d-origin="372.04724 : 350.78739 : 1"
       id="perspective3096" />
    <inkscape:perspective
       id="perspective3083"
       inkscape:persp3d-origin="0.5 : 0.33333333 : 1"
       inkscape:vp_z="1 : 0.5 : 1"
       inkscape:vp_y="0 : 1000 : 0"
       inkscape:vp_x="0 : 0.5 : 1"
       sodipodi:type="inkscape:persp3d" />
    <inkscape:perspective
       id="perspective3083-5"
       inkscape:persp3d-origin="0.5 : 0.33333333 : 1"
       inkscape:vp_z="1 : 0.5 : 1"
       inkscape:vp_y="0 : 1000 : 0"
       inkscape:vp_x="0 : 0.5 : 1"
       sodipodi:type="inkscape:persp3d" />
    <inkscape:perspective
       sodipodi:type="inkscape:persp3d"
       inkscape:vp_x="0 : 526.18109 : 1"
       inkscape:vp_y="0 : 1000 : 0"
       inkscape:vp_z="744.09448 : 526.18109 : 1"
       inkscape:persp3d-origin="372.04724 : 350.78739 : 1"
       id="perspective3096-6" />
    <inkscape:perspective
       id="perspective3083-0"
       inkscape:persp3d-origin="0.5 : 0.33333333 : 1"
       inkscape:vp_z="1 : 0.5 : 1"
       inkscape:vp_y="0 : 1000 : 0"
       inkscape:vp_x="0 : 0.5 : 1"
       sodipodi:type="inkscape:persp3d" />
    <inkscape:perspective
       sodipodi:type="inkscape:persp3d"
       inkscape:vp_x="0 : 526.18109 : 1"
       inkscape:vp_y="0 : 1000 : 0"
       inkscape:vp_z="744.09448 : 526.18109 : 1"
       inkscape:persp3d-origin="372.04724 : 350.78739 : 1"
       id="perspective3096-0" />
  </defs>
  <metadata
     id="metadata3093">
    <rdf:RDF>
      <cc:Work
         rdf:about="">
        <dc:format>image/svg+xml</dc:format>
        <dc:type
           rdf:resource="http://purl.org/dc/dcmitype/StillImage" />
        <dc:title />
      </cc:Work>
    </rdf:RDF>
  </metadata>
  <g
     inkscape:label="Layer 1"
     inkscape:groupmode="layer"
     id="layer1"
     transform="translate(0,435.82679)"
     style="display:inline">
    <path
       id="path2872"
       d="m 59.469744,-375.38552 10,-20 -15,0 0,20 5,0 z"
       style="color:#000000;fill:#0000ff;fill-opacity:1;fill-rule:nonzero;stroke:none;stroke-width:40;marker:none;visibility:visible;display:inline;overflow:visible;enable-background:accumulate" />
    <path
       id="path9843"
       d="m 153.79853,-132.99906 63.875,0 c -6.68042,1.6882 -13.35122,3.36455 -19.40625,5.53125 -6.05328,2.1665 -11.4668,4.79925 -17.3125,9.53125 -5.8448,4.7313 -12.12647,11.5557 -16.71875,18.375 -4.59318,6.8195 -7.51464,13.64925 -10.4375,20.46875 l 0,-53.90625 z"
       style="fill:#dcdcdc;fill-opacity:1;fill-rule:evenodd;stroke:#0a0bff;stroke-width:1;stroke-linecap:round;stroke-linejoin:round;stroke-miterlimit:4;stroke-opacity:1;stroke-dasharray:none" />
    <path
       id="path9841"
       d="m 274.89228,-132.99906 216.6875,0 c 0,3.9152 -0.0185,7.83175 -1.0625,12.78125 -1.04317,4.9495 -3.13509,10.90805 -6.40625,16.40625 -3.27029,5.4965 -7.70373,10.5108 -13.6875,15.3125 -5.98466,4.8007 -13.52046,9.40125 -23.75,11.90625 -10.22862,2.505 -23.15449,2.921 -34.21875,4.3125 -11.06335,1.3923 -20.23815,3.75185 -28.03125,7.71875 -7.79397,3.9662 -14.2239,9.5434 -18.46875,12.1875 -4.24487,2.644 -6.3194,2.36805 -7.78125,0.90625 -1.46097,-1.461 -2.30998,-4.11145 -3.5625,-8.84375 -1.25253,-4.7312 -2.90782,-11.54505 -5.96875,-18.78125 -3.06184,-7.2373 -7.50822,-14.90505 -15.09375,-22.28125 -7.58461,-7.3762 -18.29563,-14.4591 -28.59375,-19.6875 -10.29815,-5.2273 -20.18128,-8.579 -30.0625,-11.9375 z"
       style="fill:#dcdcdc;fill-opacity:1;fill-rule:evenodd;stroke:#0a0bff;stroke-width:1;stroke-linecap:round;stroke-linejoin:round;stroke-miterlimit:4;stroke-opacity:1;stroke-dasharray:none" />
    <path
       id="path9839"
       d="m 506.61103,-132.99906 149.875,0 c -2.64401,0.7145 -5.28857,1.42975 -8.90625,2.34375 -3.6186,0.914 -8.21108,2.0032 -13.5,3.8125 -5.28804,1.8083 -11.27115,4.31435 -16.28125,8.28125 -5.01008,3.966 -9.0356,9.40645 -11.75,16.15625 -2.7135,6.7491 -4.10986,14.82855 -3.34375,22.34375 0.76435,7.5152 3.68645,14.45305 9.53125,18.90625 5.84571,4.4533 14.59841,6.40865 21,5.15625 6.40158,-1.2527 10.43324,-5.70285 14.46875,-10.15625 -4.03551,0.6957 -8.0562,1.37985 -11.1875,0.40625 -3.1313,-0.9747 -5.36129,-3.62105 -6.40625,-7.03125 -1.04317,-3.4093 -0.90063,-7.5747 1.1875,-11.75 2.08725,-4.1754 6.1322,-8.35025 11.28125,-11.96875 5.14906,-3.6187 11.40876,-6.68865 18.4375,-7.59375 7.02695,-0.9042 14.81592,0.3698 21.84375,2.875 7.02786,2.505 13.28522,6.25225 16.625,13.90625 3.34065,7.655 3.75503,19.202 1.25,29.5 -2.50505,10.2991 -7.93383,19.34515 -16.5625,25.46875 -8.6287,6.1237 -20.44352,9.31695 -32.96875,8.96875 -12.52432,-0.3475 -25.75693,-4.2331 -38.28125,-8.6875 -12.52523,-4.4532 -24.36878,-9.454 -34.25,-14.8125 -9.88119,-5.3576 -17.78773,-11.07785 -28.15625,-15.53125 -10.36761,-4.4532 -23.17351,-7.635 -31.59375,-9.375 -8.41934,-1.7398 -12.47449,-2.0254 -13.03125,-3 -0.55678,-0.9737 2.39055,-2.6602 5.3125,-6 2.92285,-3.3396 5.81696,-8.32325 7,-14.65625 1.18306,-6.3321 0.63336,-13.98875 -1.59375,-20.46875 -2.22621,-6.4809 -6.10346,-11.78705 -10,-17.09375 z"
       style="fill:#dcdcdc;fill-opacity:1;fill-rule:evenodd;stroke:#0a0bff;stroke-width:1;stroke-linecap:round;stroke-linejoin:round;stroke-miterlimit:4;stroke-opacity:1;stroke-dasharray:none" />
    <path
       id="path9837"
       d="m 690.29853,-132.99906 157,0 c 4.59227,2.3839 9.1576,4.7558 15.28125,7.6875 6.12364,2.9319 13.77804,6.4195 20.25,11.5 6.47107,5.0788 11.77358,11.7571 17.0625,18.4375 1.39151,-3.8975 2.77657,-7.8061 4.65625,-10.9375 1.8779,-3.1313 4.25398,-5.49845 7.59375,-8.28125 3.33975,-2.783 7.64858,-5.9695 12.9375,-7.5 5.28804,-1.5305 11.54784,-1.40565 16.90625,1.65625 5.35753,3.0618 9.81238,9.0582 11.34375,14.625 1.53047,5.567 0.13722,10.7124 -3.96875,15.375 -4.10498,4.6619 -10.92097,8.83495 -20.59375,13.21875 -9.67184,4.3838 -22.20826,8.9907 -36.125,17.0625 -13.91671,8.0719 -29.20535,19.59785 -42.21875,31.21875 -13.01164,11.6202 -23.7336,23.32345 -31.875,33.34375 -8.14141,10.0201 -13.7074,18.37095 -19.34375,29.15625 -5.63635,10.7854 -11.36045,24.0028 -15.1875,36.25 -3.82707,12.2464 -5.76476,23.5358 -7.15625,29.9375 -1.39238,6.4024 -2.2137,7.9215 -4.71875,8.6875 -2.50505,0.7645 -6.69344,0.74775 -12.46875,-0.15625 -5.77533,-0.9043 -13.15957,-2.7052 -21.71875,-7.4375 -8.55833,-4.7312 -18.29843,-12.37215 -28.25,-22.53125 -9.94981,-10.1592 -20.09249,-22.8306 -29,-34.3125 -8.90664,-11.4812 -16.56064,-21.79535 -20.875,-28.40625 -4.31433,-6.6101 -5.29008,-9.52745 -0.90625,-11.40625 4.38383,-1.8787 14.11054,-2.72065 24.6875,-5.15625 10.57694,-2.4356 22.01144,-6.45075 31.40625,-11.53125 9.39302,-5.0788 16.74436,-11.2143 22.9375,-18.3125 6.19314,-7.0974 11.20487,-15.1654 18.09375,-22.75 6.88888,-7.5845 15.67915,-14.68115 26.1875,-19.34375 10.50659,-4.6618 22.72718,-6.87705 35.53125,-7.78125 12.80317,-0.9041 26.17129,-0.51165 39.53125,-0.0937 -7.79397,-5.28895 -15.59452,-10.55025 -25.40625,-14.65625 -9.81085,-4.105 -21.62565,-7.0542 -32.96875,-7.75 -11.34129,-0.6956 -22.18837,0.8421 -30.46875,3.625 -8.28036,2.783 -14.00756,6.81825 -18.53125,5.84375 -4.5219,-0.9737 -7.84267,-6.96325 -13.6875,-13.15625 -5.8448,-6.1932 -14.20934,-12.57615 -22.28125,-16.96875 -8.071,-4.3928 -15.86316,-6.77235 -23.65625,-9.15625 z"
       style="fill:#dcdcdc;fill-opacity:1;fill-rule:evenodd;stroke:#0a0bff;stroke-width:1;stroke-linecap:round;stroke-linejoin:round;stroke-miterlimit:4;stroke-opacity:1;stroke-dasharray:none" />
    <path
       id="path9835"
       d="m 240.04853,-121.46781 c 1.01997,-0.023 2.01199,-0.026 2.96875,0 7.65411,0.2075 13.09133,1.8814 21.09375,5.5 8.00242,3.6186 18.55552,9.16085 26.90625,17.09375 8.34985,7.9329 14.49118,18.24695 18.875,28.40625 4.38386,10.1591 7.0324,20.1928 7.9375,31.1875 0.90419,10.9938 0.0515,22.93975 -1.96875,30.59375 -2.01776,7.6541 -5.21885,11.0128 -11.96875,18.25 -6.74901,7.2363 -17.0333,18.35105 -26.21875,31.78125 -9.18458,13.4294 -17.25835,29.15905 -23.3125,48.15625 -6.05328,18.9954 -10.0887,41.25675 -12.59375,56.84375 -2.50505,15.587 -3.48592,24.5049 -5.15625,29.375 -1.67033,4.8712 -4.04134,5.71555 -7.3125,3.90625 -3.27028,-1.8093 -7.42856,-6.28515 -13.34375,-11.15625 -5.9143,-4.8712 -13.57141,-10.1371 -24.21875,-14.3125 -10.64557,-4.1754 -24.29872,-7.2507 -37.9375,-10.3125 l 0,-43 c 6.81939,-0.9736 13.6386,-1.95545 22.40625,-5.15625 8.76768,-3.2008 19.49999,-8.62965 27.78125,-15.03125 8.27948,-6.4016 14.12898,-13.7613 17.46875,-22.25 3.33975,-8.4898 4.15266,-18.10395 2.96875,-26.59375 -1.18215,-8.4888 -4.36279,-15.85715 -1.71875,-19.40625 2.644,-3.5482 11.12839,-3.26515 18.15625,-4.03125 7.02783,-0.7644 12.57665,-2.5898 17.65625,-6 5.07956,-3.4093 9.6906,-8.3968 13.03125,-14.9375 3.33978,-6.5414 5.4144,-14.61915 6.25,-22.34375 0.83472,-7.7227 0.41829,-15.09955 -2.15625,-22.40625 -2.57454,-7.3056 -7.31057,-14.5465 -13.15625,-19 -5.84482,-4.4532 -12.80687,-6.11815 -19,-4.65625 -6.19314,1.461 -11.60636,6.04915 -13.625,10.78125 -2.01775,4.7312 -0.61114,9.59755 0.78125,14.46875 3.06093,-2.7839 6.12111,-5.5543 9.53125,-6.25 3.40927,-0.6958 7.16847,0.69195 9.8125,3.40625 2.64489,2.7136 4.14835,6.7425 4.21875,10.5 0.0711,3.7576 -1.30618,7.2493 -4.4375,10.9375 -3.1313,3.6872 -8.0199,7.5715 -13.65625,9.9375 -5.63636,2.3661 -12.03707,3.19465 -19.34375,1.59375 -7.3058,-1.5999 -15.519,-5.64145 -21.15625,-12.53125 -5.63545,-6.888 -8.67352,-16.60805 -8.8125,-26.90625 -0.13979,-10.298 2.64945,-21.16525 7.9375,-30.28125 5.28892,-9.115 13.0682,-16.4991 21.90625,-20.8125 7.73171,-3.7751 16.26646,-5.18525 23.40625,-5.34375 z"
       style="fill:#dcdcdc;fill-opacity:1;fill-rule:evenodd;stroke:#0a0bff;stroke-width:1;stroke-linecap:round;stroke-linejoin:round;stroke-miterlimit:4;stroke-opacity:1;stroke-dasharray:none" />
    <path
       id="path9833"
       d="m 979.01728,-48.93656 0,280.28125 c -3.59137,-9.4113 -7.51858,-18.87465 -14.9375,-28.96875 -8.23405,-11.2032 -20.76963,-23.17625 -33.78125,-34.03125 -13.0134,-10.8558 -26.49952,-20.585 -36.9375,-31.71875 -10.4371,-11.1337 -17.81854,-23.68515 -22.0625,-36.90625 -4.24575,-13.221 -5.38111,-27.11635 -5.3125,-36.71875 0.0704,-9.6024 1.35028,-14.8984 3.4375,-13.4375 2.08725,1.462 5.00844,9.68395 9.53125,16.78125 4.52278,7.0982 10.64431,13.0664 19.96875,17.9375 9.32443,4.8711 21.84074,8.6246 33.53125,9.25 11.68962,0.627 22.53261,-1.8572 28.65625,-3.875 6.12365,-2.0187 7.51474,-3.56245 8.90625,-5.09375 -8.2109,-4.8712 -16.4014,-9.73955 -24.125,-16.90625 -7.7236,-7.1677 -14.97226,-16.62345 -20.46875,-26.15625 -5.49739,-9.5338 -9.24632,-19.13565 -9.59375,-29.78125 -0.34922,-10.6474 2.70993,-22.34705 7.09375,-30.90625 4.38383,-8.5591 10.09969,-13.98095 15.875,-18.15625 5.77622,-4.1755 11.61922,-7.10385 18.53125,-8.84375 6.56811,-1.6531 14.10762,-2.2181 21.6875,-2.75 z"
       style="fill:#dcdcdc;fill-opacity:1;fill-rule:evenodd;stroke:#0a0bff;stroke-width:1;stroke-linecap:round;stroke-linejoin:round;stroke-miterlimit:4;stroke-opacity:1;stroke-dasharray:none" />
    <path
       id="path9831"
       d="m 153.79853,-44.43656 c 1.25253,4.0355 2.4999,8.07225 4.03125,11.96875 1.53046,3.8966 3.3362,7.64635 7.09375,12.65625 3.75758,5.0101 9.46807,11.278 14.6875,17.75 5.21855,6.4711 9.94644,13.1448 12.3125,20.3125 2.36607,7.1667 2.38324,14.81465 1.6875,22.46875 -0.69664,7.6549 -2.10469,15.32285 -5.375,22.28125 -3.27025,6.9583 -8.41372,13.22395 -14.46875,17.46875 -6.05328,4.2439 -13.0104,6.4603 -19.96875,8.6875 l 0,-133.59375 z"
       style="fill:#dcdcdc;fill-opacity:1;fill-rule:evenodd;stroke:#0a0bff;stroke-width:1;stroke-linecap:round;stroke-linejoin:round;stroke-miterlimit:4;stroke-opacity:1;stroke-dasharray:none" />
    <path
       id="path9829"
       d="m 481.42353,-38.31156 c 14.1449,-0.1113 27.15081,1.1445 39.9375,4.25 14.61246,3.5482 28.92965,9.5198 40.0625,16.6875 11.13372,7.1667 19.06832,15.506 26.375,22.8125 7.3058,7.3059 13.99001,13.59185 17.46875,17.90625 3.47963,4.3144 3.74428,6.67905 3.1875,8.90625 -0.55588,2.2262 -1.944,4.303 -4.03125,5.625 -2.08722,1.3219 -4.85462,1.8852 -9.65625,3.625 -4.80074,1.7389 -11.63906,4.66135 -18.25,8.90625 -6.61003,4.2448 -12.99106,9.8109 -18.90625,13.5 -5.91429,3.6872 -11.36536,5.4803 -14.21875,5.0625 -2.85245,-0.4168 -3.10986,-3.05985 -2.34375,-5.84375 0.76435,-2.783 2.5657,-5.70285 4.375,-10.15625 1.80929,-4.4532 3.62716,-10.4483 3,-15.25 -0.62537,-4.8007 -3.70796,-8.40565 -5.65625,-12.09375 -1.94827,-3.6882 -2.75903,-7.43 -3.59375,-11.1875 -1.11355,2.0872 -2.2265,4.17335 -3.6875,5.84375 -1.46097,1.6693 -3.29384,2.9061 -5.3125,4.4375 -2.01685,1.5306 -4.22893,3.3412 -5.96875,6.125 -1.73979,2.783 -2.98933,6.53755 -3.40625,10.15625 -0.4178,3.6186 0.005,7.11545 -0.34375,9.96875 -0.34743,2.8525 -1.46865,5.05745 -3,6.03125 -1.53046,0.9746 -3.48717,0.6969 -4.53125,-0.625 -1.04317,-1.322 -1.17354,-3.6659 -1.3125,-7.5625 -0.13903,-3.8966 -0.27659,-9.34065 -2.15625,-14.28125 -1.87789,-4.9397 -5.50969,-9.37795 -9.40625,-12.71875 -3.89653,-3.3396 -8.06754,-5.57835 -13.84375,-6.34375 -5.77531,-0.7652 -13.15682,-0.0789 -17.75,2.84375 -4.59228,2.9221 -6.37821,8.06955 -8.1875,13.21875 3.20079,-1.3915 6.39868,-2.7767 10.15625,-3.125 3.75667,-0.3476 8.04705,0.33645 11.875,3.46875 3.82704,3.1304 7.19643,8.7156 9.5625,15.1875 2.36518,6.4711 3.73818,13.8541 3.25,20.8125 -0.48638,6.9583 -2.84204,13.4935 -5.625,19.6875 -2.7839,6.1922 -5.98546,12.0332 -9.8125,16 -3.82706,3.9662 -8.29087,6.04715 -13.71875,8.34375 -5.42702,2.2956 -11.80735,4.8054 -15.84375,7.9375 -4.03552,3.1305 -5.72206,6.89205 -6,10.09375 -0.27882,3.2008 0.8449,5.8538 1.75,9.125 0.90421,3.2695 1.59958,7.15695 0.625,10.21875 -0.97368,3.0617 -3.63062,5.28565 -5.71875,6.46875 -2.08725,1.183 -3.60636,1.32535 -5.625,0.28125 -2.01776,-1.0441 -4.52049,-3.26545 -6.46875,-7.71875 -1.94827,-4.45335 -3.34615,-11.1449 -3.625,-18.3125 -0.27794,-7.1668 0.55311,-14.82315 0.34375,-21.15625 -0.20842,-6.3312 -1.44972,-11.3372 -4.09375,-16 -2.64401,-4.6618 -6.69381,-8.967 -11.84375,-11.75 -5.14906,-2.7838 -11.40772,-4.05755 -16,-5.03125 -4.5923,-0.9746 -7.51465,-1.64785 -10.4375,-2.34375 3.61862,4.7313 7.24613,9.4671 10.65625,12.25 3.40927,2.7839 6.59812,3.60955 9.3125,5.90625 2.71262,2.2965 4.95227,6.0615 6.34375,10.375 1.39151,4.3143 1.95274,9.1753 1.1875,14.8125 -0.76523,5.6356 -2.87934,12.0281 -5.59375,18.5 -2.7135,6.4711 -6.04511,13.01045 -7.4375,19.96875 -1.39148,6.9583 -0.83355,14.33945 0.90625,19.90625 1.73982,5.5669 4.6709,9.33305 7.59375,11.28125 2.92285,1.9484 5.83539,2.09165 8.0625,2.71875 2.22621,0.6254 3.75,1.73735 3.75,2.78125 0,1.0433 -1.52379,2.0103 -3.75,3.75 -2.22711,1.739 -5.14081,4.2403 -8.96875,8.625 -3.82707,4.383 -8.55608,10.66325 -13.21875,17.34375 -4.66177,6.6804 -9.25182,13.7616 -13.21875,21.625 -3.96603,7.8626 -7.32393,16.48615 -8.4375,24.90625 -1.11355,8.4194 -0.004,16.6416 1.875,22 1.87877,5.3576 4.54715,7.86755 6.84375,10.09375 2.2957,2.227 4.22079,4.1771 5.125,5.5 0.90419,1.3211 0.78503,2.0197 -1.09375,2.4375 -1.8788,0.4178 -5.50272,0.54975 -9.46875,1.59375 -3.96602,1.0433 -8.28513,3.0007 -13.15625,6.0625 -4.87112,3.0617 -10.29668,7.2259 -14.75,12.375 -4.45329,5.1489 -7.94643,11.25755 -10.3125,15.78125 -2.36607,4.5219 -3.61791,7.4695 -5.21875,9 -1.59995,1.5313 -3.53854,1.6646 -7.15625,-0.5625 -3.6186,-2.2262 -8.90839,-6.8342 -16.5625,-16.4375 -7.65411,-9.6023 -17.67031,-24.2036 -24.28125,-40 -6.61003,-15.7955 -9.81113,-32.78745 -11.96875,-43.78125 -2.15674,-10.9948 -3.26145,-15.99265 -4.375,-24.96875 -1.11266,-8.9761 -2.23526,-21.9136 -0.84375,-33.8125 1.39148,-11.899 5.29911,-22.74745 10.03125,-32.28125 4.73216,-9.5319 10.28045,-17.7662 17.03125,-23.75 6.74901,-5.9846 14.67441,-9.74265 23.09375,-11.96875 8.41931,-2.2271 17.33446,-2.9203 23.875,-1.25 6.54054,1.6702 10.72894,5.70065 12.46875,10.78125 1.73982,5.0787 1.04039,11.2201 0.34375,17.34375 6.68042,-5.2889 13.36755,-10.596 15.59375,-18.25 2.22712,-7.655 -0.0167,-17.6528 -3.84375,-24.75 -3.82707,-7.0973 -9.24321,-11.27355 -14.53125,-15.03125 -5.28802,-3.7574 -10.44801,-7.11095 -15.875,-8.78125 -5.42791,-1.6694 -11.13587,-1.6748 -15.9375,-1.1875 -4.80075,0.4864 -8.7034,1.47665 -11,1.40625 -2.2957,-0.069 -2.9906,-1.1767 -2.78125,-3.125 0.20843,-1.9493 1.34937,-4.7426 3.4375,-8.5 2.08725,-3.7576 5.13837,-8.4806 8.6875,-14.1875 3.54822,-5.7057 7.58368,-12.3809 12.59375,-19.6875 5.01011,-7.3068 10.99177,-15.24755 19.96875,-24.78125 8.97613,-9.5329 20.93893,-20.67355 33.8125,-29.09375 12.87266,-8.4194 26.65227,-14.12675 42.65625,-18.09375 16.00484,-3.9659 34.25176,-6.1931 50.8125,-6.75 2.0702,-0.07 4.1043,-0.109 6.125,-0.125 z"
       style="fill:#dcdcdc;fill-opacity:1;fill-rule:evenodd;stroke:#0a0bff;stroke-width:1;stroke-linecap:round;stroke-linejoin:round;stroke-miterlimit:4;stroke-opacity:1;stroke-dasharray:none" />
    <path
       id="path9827"
       d="m 500.20478,91.43844 c 0.62459,0.01 1.52101,0.43945 2.90625,1.34375 2.77052,1.8085 7.48057,5.54565 9.9375,9.90625 2.45605,4.3598 2.64209,9.348 3.09375,14 0.45076,4.6521 1.15327,8.9883 2.59375,10.125 1.4387,1.1359 3.64044,-0.93155 6.125,-3.84375 2.48368,-2.9121 5.27147,-6.6718 8.84375,-9.25 3.57316,-2.5762 7.90795,-3.9742 11.8125,-5.1875 3.90368,-1.2135 7.34954,-2.2357 9.90625,-3 2.55581,-0.7636 4.22652,-1.28315 4.90625,-0.90625 0.6797,0.375 0.38948,1.6458 -0.3125,4.5 -0.70109,2.8533 -1.80245,7.2997 -3.28125,11.5 -1.47701,4.2003 -3.35026,8.1405 -5.4375,11.0625 -2.08723,2.922 -4.39212,4.84915 -7.21875,6.84375 -2.82754,1.9936 -6.16072,4.06935 -7.34375,5.53125 -1.18304,1.4602 -0.22834,2.29935 2.625,3.96875 2.85248,1.6702 7.598,4.1661 11.84375,8.0625 4.24396,3.8966 8.00079,9.18325 9.53125,13.21875 1.53135,4.0364 0.83688,6.8379 -0.625,7.8125 -1.46097,0.9736 -3.68235,0.1297 -7.71875,-1.75 -4.03551,-1.8779 -9.89228,-4.80535 -18.3125,-6.40625 -8.41846,-1.5999 -19.41985,-1.8693 -28.1875,-1.3125 -8.76765,0.5558 -15.31307,1.93635 -19.90625,1.03125 -4.59227,-0.9042 -7.21875,-4.10585 -7.21875,-8.28125 0,-4.1754 2.65694,-9.3119 5.71875,-14.53125 3.06181,-5.2178 6.53231,-10.50705 8.96875,-15.65625 2.43468,-5.1489 3.81821,-10.1695 4.375,-15.25 0.55676,-5.0787 0.28125,-10.2214 0.28125,-14.1875 0,-3.966 0.28697,-6.75765 0.84375,-8.21875 0.2784,-0.7304 0.62541,-1.1334 1.25,-1.125 z"
       style="fill:#dcdcdc;fill-opacity:1;fill-rule:evenodd;stroke:#0a0bff;stroke-width:1;stroke-linecap:round;stroke-linejoin:round;stroke-miterlimit:4;stroke-opacity:1;stroke-dasharray:none" />
    <path
       id="path9825"
       d="m 653.32978,98.40719 c 0.52827,-0.023 1.01643,-0.01 1.46875,0 3.61862,0.069 4.74379,1.0453 6.34375,6.125 1.60083,5.0796 3.6874,14.2848 5.21875,28.0625 1.53046,13.7778 2.5198,32.1477 1.40625,48.5 -1.11356,16.3524 -4.33331,30.67835 -9.96875,43.96875 -5.63726,13.2905 -13.70693,25.5391 -21.5,33.75 -7.79397,8.2109 -15.31795,12.3699 -23.25,14.875 -7.93293,2.505 -16.26737,3.33795 -23.15625,2.78125 -6.88888,-0.5568 -12.33009,-2.4868 -16.15625,-5.6875 -3.82795,-3.2009 -6.05058,-7.67055 -7.09375,-11.21875 -1.04406,-3.55 -0.88452,-6.19835 0.4375,-9.46875 1.32289,-3.2702 3.82805,-7.15245 6.75,-9.03125 2.92286,-1.8788 6.2531,-1.73255 9.59375,-1.59375 -6.81938,-3.2007 -13.64364,-6.40045 -19.90625,-5.84375 -6.2626,0.5568 -11.95178,4.8472 -15.5,11.875 -3.55001,7.0288 -4.97,16.78555 -4.34375,25.34375 0.62625,8.5601 3.27117,15.93775 8.28125,21.15625 5.0101,5.2195 12.41298,8.289 19.71875,9.75 7.30668,1.4619 14.52573,1.30095 19.1875,1.71875 4.66267,0.4178 6.75825,1.4058 6.0625,3.5625 -0.69574,2.1576 -4.17693,5.5026 -11.34375,11 -7.16682,5.4973 -18.0107,13.1284 -28.65625,18.625 -10.64733,5.4981 -21.11294,8.86055 -31.96875,11.15625 -10.8549,2.2966 -22.10193,3.5432 -34,2.5 -11.89986,-1.044 -24.45179,-4.3961 -36.28125,-10.9375 -11.82861,-6.5406 -22.94663,-16.27755 -30.53125,-24.90625 -7.58464,-8.6277 -11.61387,-16.13595 -14.1875,-26.15625 -2.57543,-10.0201 -3.70158,-22.55835 -2.03125,-33.34375 1.67032,-10.7853 6.12978,-19.8332 11,-27 4.87112,-7.1676 10.15655,-12.438 13.84375,-15.5 3.68809,-3.0617 5.7644,-3.89925 7.78125,-3.96875 2.01866,-0.069 3.97893,0.61645 5.71875,3.46875 1.73979,2.8534 3.26931,7.86945 4.3125,12.53125 1.04496,4.6626 1.60472,8.9636 4.875,13 3.27117,4.0355 9.23865,7.81215 14.875,9.96875 5.63635,2.1577 10.94353,2.69975 15.1875,5.34375 4.24487,2.644 7.45099,7.38345 9.46875,11.90625 2.01863,4.5228 2.83676,8.8468 2.90625,12.1875 0.0711,3.3396 -0.61225,5.70225 -0.125,7.09375 0.48729,1.3915 2.15336,1.8153 4.03125,-0.0625 1.87878,-1.8788 3.97981,-6.0524 5.71875,-11.0625 1.73979,-5.0101 3.1053,-10.8785 2.6875,-16.375 -0.41781,-5.4983 -2.63025,-10.6232 -5.34375,-14.9375 -2.71441,-4.3143 -5.92296,-7.8132 -9.75,-10.875 -3.82707,-3.0618 -8.26796,-5.7021 -11.46875,-8.625 -3.20167,-2.9219 -5.14431,-6.11275 -6.1875,-10.21875 -1.04406,-4.1059 -1.20847,-9.10925 -1,-12.03125 0.20843,-2.9228 0.78116,-3.76775 2.3125,-3.28125 1.53047,0.4872 4.0262,2.28195 6.53125,5.34375 2.50505,3.0618 5.00388,7.3839 9.875,9.75 4.87111,2.3652 12.12255,2.78365 20.125,1.53125 8.00242,-1.2526 16.77262,-4.18005 26.375,-6.40625 9.60237,-2.2271 20.05057,-3.7583 29.375,-3.0625 9.32444,0.6957 17.53223,3.61505 24.28125,7.09375 6.74989,3.4795 12.03203,7.5178 13.5625,12.25 1.53137,4.7311 -0.71041,10.16575 -2.9375,15.59375 5.14994,-2.645 10.3128,-5.29435 14,-9.46875 3.68897,-4.1754 5.90294,-9.8624 5.625,-16.125 -0.27882,-6.2627 -3.05617,-13.0883 -6.1875,-17.75 -3.1313,-4.6627 -6.59647,-7.15945 -10.5625,-8.96875 -3.96602,-1.8093 -8.44275,-2.92465 -11.15625,-3.96875 -2.7144,-1.0441 -3.67685,-2.03575 -4.09375,-3.21875 -0.41782,-1.183 -0.28503,-2.56455 1.59375,-3.46875 1.8788,-0.9051 5.51428,-1.31455 9.0625,-2.21875 3.54911,-0.9051 7.01758,-2.3189 10.84375,-5.9375 3.82794,-3.6177 8.01185,-9.45535 11.28125,-12.65625 3.27116,-3.2008 5.63393,-3.7557 8,-4.3125 -3.89741,-1.3915 -7.8128,-2.7947 -11.5,-4.8125 -3.68897,-2.0186 -7.15198,-4.66215 -11.1875,-5.21875 -4.03639,-0.5568 -8.62201,0.9931 -12.03125,1.0625 -3.41015,0.069 -5.64732,-1.32805 -3.28125,-5.78125 2.36609,-4.4533 9.32492,-11.9664 17.1875,-18.4375 7.86344,-6.4719 16.61775,-11.89985 24.0625,-15.03125 6.51572,-2.7398 12.02091,-3.74835 15.71875,-3.90625 z"
       style="fill:#dcdcdc;fill-opacity:1;fill-rule:evenodd;stroke:#0a0bff;stroke-width:1;stroke-linecap:round;stroke-linejoin:round;stroke-miterlimit:4;stroke-opacity:1;stroke-dasharray:none" />
    <path
       id="path9823"
       d="m 823.54853,105.43844 c 1.43011,0.2209 2.69406,4.4905 4.40625,10.3125 2.08723,7.0972 4.86239,16.53765 11.125,26.90625 6.26262,10.3677 16.00843,21.6404 28.8125,34.375 12.80317,12.7336 28.66845,26.9256 39.59375,36.25 10.92436,9.3244 16.89985,13.7863 21.5625,19.5625 4.66179,5.7754 7.98796,12.8794 10.5625,20.8125 2.57452,7.932 4.38403,16.69285 5.21875,26.15625 0.8356,9.4634 0.69827,19.6222 -1.25,28.25 -1.94826,8.6286 -5.68645,15.7238 -11.53125,21.5 -5.84482,5.7753 -13.77552,10.24035 -21.5,13.09375 -7.72361,2.8524 -15.23816,4.11855 -23.03125,2.03125 -7.79307,-2.0881 -15.87925,-7.5417 -20.125,-14.5 -4.24399,-6.9593 -4.64734,-15.43965 -2.28125,-23.09375 2.36607,-7.654 7.4874,-14.4842 13.75,-18.9375 6.26263,-4.4542 13.64696,-6.52555 20.1875,-5.96875 6.54145,0.5568 12.26291,3.76795 17.96875,6.96875 -0.55678,-5.4281 -1.12073,-10.85455 -5.15625,-15.65625 -4.03639,-4.8007 -11.56832,-8.9953 -18.875,-10.875 -7.30577,-1.8779 -14.37967,-1.46455 -20.78125,0.34375 -6.40247,1.8093 -12.12441,5.0093 -15.8125,6.75 -3.68808,1.739 -5.36557,2.0191 -5.15625,-0.625 0.20767,-2.644 2.31328,-8.2038 3.84375,-14.1875 1.53137,-5.9847 2.48982,-12.3961 0.75,-18.9375 -1.73891,-6.5405 -6.18807,-13.20545 -10.78125,-16.40625 -4.59228,-3.2008 -9.33124,-2.93425 -14.0625,-2.65625 3.2008,5.5669 6.42926,11.1475 7.125,17.0625 0.69577,5.9143 -1.11045,12.1608 -4.9375,18.5625 -3.82706,6.4015 -9.69457,12.9611 -16.375,18.25 -6.67953,5.288 -14.1773,9.31115 -20.71875,11.46875 -6.54057,2.1567 -12.11208,2.4417 -14.6875,-0.0625 -2.57364,-2.5051 -2.15762,-7.7942 0,-13.5 2.15674,-5.7068 6.03841,-11.8387 11.1875,-22.625 5.14906,-10.7854 11.54705,-26.2279 15.375,-40.5625 3.82616,-14.3345 5.09491,-27.56745 6,-40.71875 0.90419,-13.1515 1.44439,-26.23105 2.90625,-37.15625 1.461,-10.9244 3.83998,-19.6698 5.71875,-21.6875 0.23474,-0.2521 0.46563,-0.41885 0.6875,-0.46875 0.0971,-0.022 0.18591,-0.0464 0.28125,-0.0312 z"
       style="fill:#dcdcdc;fill-opacity:1;fill-rule:evenodd;stroke:#0a0bff;stroke-width:1;stroke-linecap:round;stroke-linejoin:round;stroke-miterlimit:4;stroke-opacity:1;stroke-dasharray:none" />
    <path
       id="path9821"
       d="m 703.36103,111.28219 c 0.12679,-0.025 0.28093,-0.017 0.4375,0 1.25253,0.1391 3.48877,1.54595 7.59375,4.46875 4.10589,2.9229 10.06957,7.3639 16.75,9.9375 6.6804,2.5756 14.05814,3.2776 19.625,3.625 5.56687,0.3484 9.32921,0.35075 13.15625,0.28125 3.82707,-0.069 7.71826,-0.2235 9.875,0.75 2.15671,0.9747 2.58804,3.07415 2.03125,9.40625 -0.55678,6.332 -2.08745,16.9047 -5.21875,33.1875 -3.1313,16.2828 -7.86774,38.2651 -15.3125,58.375 -7.44566,20.1098 -17.60163,38.36005 -25.8125,51.09375 -8.21089,12.7346 -14.47235,19.9574 -18.4375,24.0625 -3.9669,4.1059 -5.64421,5.08925 -8.21875,3.90625 -2.57454,-1.1831 -6.05377,-4.5467 -8.90625,-9 -2.85336,-4.4534 -5.06697,-10.01485 -6.25,-18.15625 -1.18303,-8.1413 -1.3154,-18.83875 0.5625,-28.09375 1.87968,-9.255 5.74573,-17.07225 9.78125,-27.71875 4.0364,-10.6465 8.22069,-24.11915 10.65625,-36.15625 2.43556,-12.0388 3.13567,-22.6131 2.71875,-31.9375 -0.4178,-9.3244 -1.93497,-17.39805 -3.1875,-24.84375 -1.25162,-7.4456 -2.24632,-14.2839 -2.59375,-18.25 -0.30477,-3.471 -0.13754,-4.7634 0.75,-4.9375 z"
       style="fill:#dcdcdc;fill-opacity:1;fill-rule:evenodd;stroke:#0a0bff;stroke-width:1;stroke-linecap:round;stroke-linejoin:round;stroke-miterlimit:4;stroke-opacity:1;stroke-dasharray:none" />
    <path
       id="path9819"
       d="m 153.79853,164.71969 c 5.28892,2.0873 10.59513,4.18365 16.71875,7.59375 6.12364,3.4084 13.07036,8.1283 21.28125,16.6875 8.2109,8.5584 17.6814,20.94095 26.03125,34.71875 8.34988,13.7778 15.56891,28.9668 19.1875,41.5625 3.61771,12.5939 3.63886,22.6026 5.03125,33.25 1.39148,10.6456 4.1581,21.92675 8.125,32.15625 3.96602,10.2286 9.11539,19.41445 11.96875,25.46875 2.85246,6.0541 3.41577,8.98025 2.09375,10.09375 -1.32199,1.1136 -4.52115,0.3962 -9.53125,-2.875 -5.01008,-3.2702 -11.81717,-9.09955 -18.21875,-16.40625 -6.40159,-7.3058 -12.39296,-16.0856 -15.59375,-25.0625 -3.2008,-8.9762 -3.61433,-18.15925 -4.03125,-27.34375 -3.75758,2.2262 -7.52861,4.46815 -10.3125,8.15625 -2.78297,3.6882 -4.59616,8.843 -4.875,14.0625 -0.27794,5.2175 0.98491,10.49285 0.21875,12.09375 -0.76433,1.5999 -3.56319,-0.4975 -6.625,-1.75 -3.06184,-1.2525 -6.38585,-1.6735 -11.1875,-1.8125 -4.80075,-0.1391 -11.08112,0.0171 -17.34375,0.15625 1.25253,6.9584 2.52872,13.91585 3.78125,19.34375 1.25253,5.427 2.49254,9.31075 4.71875,12.09375 2.22711,2.7838 5.43063,4.45015 3.96875,6.46875 -1.461,2.0177 -7.58365,4.39855 -12.59375,8.15625 -5.01007,3.7574 -8.91596,8.9135 -12.8125,14.0625 l 0,-220.875 z"
       style="fill:#dcdcdc;fill-opacity:1;fill-rule:evenodd;stroke:#0a0bff;stroke-width:1;stroke-linecap:round;stroke-linejoin:round;stroke-miterlimit:4;stroke-opacity:1;stroke-dasharray:none" />
    <path
       id="path9817"
       d="m 647.26728,307.21969 c 2.54914,0.042 4.66608,2.28835 7.40625,5.09375 2.92285,2.9923 6.5434,6.60935 10.71875,9.53125 4.17538,2.923 8.90567,5.1421 12.59375,6.8125 3.68809,1.6703 6.33423,2.8096 7.65625,4.6875 1.32202,1.8797 1.32513,4.51355 -4.9375,13.28125 -6.26172,8.7676 -18.79551,23.65445 -30.625,34.71875 -11.82946,11.0643 -22.96413,18.29615 -35.90625,24.90625 -12.94306,6.6109 -27.70035,12.58375 -46,17.59375 -18.30145,5.0101 -40.13382,9.05925 -63.375,8.78125 -23.24115,-0.2788 -47.88316,-4.8706 -68.0625,-10.4375 -20.17934,-5.5668 -35.91217,-12.1143 -49.96875,-20.8125 -14.05569,-8.6981 -26.43849,-19.53255 -33.1875,-25.65625 -6.74992,-6.1235 -7.86102,-7.525 -8,-9.125 -0.13979,-1.6007 0.69035,-3.3987 3.125,-5.625 2.43647,-2.2271 6.46654,-4.877 11.40625,-7.3125 4.94149,-2.4357 10.78341,-4.6732 18.4375,-5.4375 7.65411,-0.7661 17.14432,-0.0651 26.46875,2.71875 9.32444,2.783 18.50214,7.65435 26.15625,11.96875 7.65411,4.3143 13.76642,8.05295 24.96875,10.90625 11.20412,2.8534 27.49236,4.80185 43.84375,5.21875 16.35318,0.4177 32.77981,-0.67625 47.53125,-4.78125 14.75234,-4.1059 27.81852,-11.2061 40.34375,-19 12.52523,-7.7931 24.51576,-16.2767 32.65625,-23.375 8.14231,-7.0973 12.45421,-12.8106 16.28125,-17.125 3.82795,-4.3143 7.15453,-7.2221 9.9375,-7.5 0.17399,-0.017 0.36131,-0.0344 0.53125,-0.0312 z"
       style="fill:#dcdcdc;fill-opacity:1;fill-rule:evenodd;stroke:#0a0bff;stroke-width:1;stroke-linecap:round;stroke-linejoin:round;stroke-miterlimit:4;stroke-opacity:1;stroke-dasharray:none" />
    <path
       id="path9815"
       d="m 979.01728,324.56344 0,104.21875 c -38.8386,0.072 -76.85456,3.6883 -113.71875,10.5625 -0.29846,-5.6755 -0.58444,-11.34635 1.5625,-17.59375 2.14691,-6.2484 6.71187,-13.07455 13.53125,-18.78125 6.81851,-5.7057 15.89191,-10.28155 24.9375,-13.96875 9.0465,-3.689 18.08184,-6.47265 27.40625,-11.34375 9.32443,-4.8712 18.92362,-11.84475 25.8125,-18.59375 6.88888,-6.7499 11.06426,-13.26855 14.21875,-19.53125 2.57927,-5.1207 4.47678,-10.06805 6.25,-14.96875 z"
       style="fill:#dcdcdc;fill-opacity:1;fill-rule:evenodd;stroke:#0a0bff;stroke-width:1;stroke-linecap:round;stroke-linejoin:round;stroke-miterlimit:4;stroke-opacity:1;stroke-dasharray:none" />
    <path
       id="path9813"
       d="M745.14228 333.68844C746.67362 333.27064 742.91712 341.06569 739.29853 348.71969C735.67991 356.37379 732.19457 363.89154 730.45478 373.56344C728.71496 383.23614 728.69894 395.06299 729.67353 403.96969C730.64721 412.87639 732.59647 418.85194 736.42353 424.00094C740.25058 429.15004 745.96644 433.47744 752.29853 434.93844C758.63153 436.40034 765.58695 434.99344 770.73603 431.37594C775.88509 427.75734 779.23913 421.90914 782.57978 416.06344C779.79591 416.89904 777.00516 417.74774 772.82978 415.93844C768.65531 414.12914 763.10085 409.67214 761.36103 403.68844C759.62121 397.70374 761.69605 390.18499 764.54853 383.15719C767.40189 376.12929 771.03477 369.58159 776.39228 365.40719C781.75069 361.23179 788.84475 359.43259 795.45478 360.40719C802.06572 361.38089 808.18354 365.12909 815.76728 368.46969C823.35277 371.80939 832.40588 374.73924 841.17353 376.68844C849.94119 378.63664 858.40462 379.59659 859.51728 382.03219C860.63085 384.46769 854.38053 388.38524 849.57978 394.43844C844.77815 400.49254 841.4273 408.68479 839.54853 415.78219C837.66975 422.87959 837.25485 428.87289 837.67353 433.46969C838.09133 438.06649 839.35674 441.26009 840.61103 444.46969C825.426614464 447.946265835 810.453719528 451.977858074 795.714774297 456.541957386C780.848301451 461.145547223 766.219844289 466.290898954 751.852419168 471.954913895C737.386359931 477.657812986 723.18492907 483.886521103 709.271620233 490.617460564C695.284833566 497.383946914 681.589220173 504.657983301 668.208647887 512.41561652C654.775758408 520.203581595 641.660378435 528.47893256 628.886656865 537.217434141C616.078584742 545.979434931 603.61401104 555.207080657 591.51728 564.87594C587.98866 562.02969 584.45799 559.18001 583.11103 553.09469C581.76408 547.00933 582.58822 537.70861 587.11103 527.68844C591.63472 517.66826 599.83143 506.95281 609.64228 497.90719C619.45401 488.86069 630.88171 481.48929 638.04853 475.15719C645.21625 468.8242 648.14765 463.52884 649.32978 456.50094C650.51284 449.47314 649.9447 440.68969 654.95478 431.78219C659.96488 422.87549 670.53903 413.83114 680.14228 405.06344C689.74466 396.29584 698.37675 387.81379 706.51728 378.90719C714.65956 370.00049 722.31222 360.66454 729.54853 351.68844C736.78571 342.71144 743.61181 334.10624 745.14228 333.68844C745.14228 333.68844 745.14228 333.68844 745.14228 333.68844"
       style="fill:#dcdcdc;fill-opacity:1;fill-rule:evenodd;stroke:#0a0bff;stroke-width:1;stroke-linecap:round;stroke-linejoin:round;stroke-miterlimit:4;stroke-opacity:1;stroke-dasharray:none" />
    <path
       id="path9811"
       d="m 185.17353,379.78219 c 0.94865,-0.042 1.8366,0.32835 2.96875,0.96875 3.01907,1.7069 7.81246,5.274 14.5,7.5625 6.68842,2.2868 15.2705,3.2935 25.125,3.1875 9.85359,-0.1069 20.96621,-1.33085 28.125,-1.53125 7.1588,-0.1995 10.36092,0.62005 12.03125,1.59375 1.67033,0.9746 1.80071,2.09115 0.0625,3.34375 -1.73979,1.2525 -5.33927,2.65445 -12.4375,6.96875 -7.09732,4.3144 -17.69149,11.5608 -29.3125,22.625 -11.62014,11.0634 -24.26679,25.943 -34.84375,42.15625 -10.57696,16.21332 -19.08481,33.7572 -25,47.1875 -5.91429,13.42856 -9.254,22.73809 -12.59375,32.0625 l 0,-136.53125 c 9.60238,-10.0202 19.19798,-20.0445 24.625,-25.125 3.39243,-3.1742 5.16891,-4.39835 6.75,-4.46875 z"
       style="fill:#dcdcdc;fill-opacity:1;fill-rule:evenodd;stroke:#0a0bff;stroke-width:1;stroke-linecap:round;stroke-linejoin:round;stroke-miterlimit:4;stroke-opacity:1;stroke-dasharray:none" />
    <path
       id="path9809"
       d="m 320.61103,422.81344 c 2.32103,-0.023 4.09058,0.25955 5.15625,0.78125 3.40836,1.6703 -0.35587,5.81975 -4.53125,10.96875 -4.17538,5.1491 -8.78763,11.278 -12.40625,17.75 -3.61859,6.4702 -6.24747,13.2895 -7.5,20.875 -1.25252,7.58373 -1.1251,15.93506 0.40625,23.9375 1.53046,8.00154 4.46311,15.66653 10.65625,24.15625 6.19311,8.4888 15.6606,17.79416 18.375,23.5 2.7126,5.70585 -1.32465,7.81076 -5.5,10.59375 -4.1745,2.78387 -8.50756,6.25969 -13.03125,10.15625 -4.52281,3.89741 -9.24854,8.21805 -12.9375,13.4375 -3.68718,5.21855 -6.30997,11.34385 -7.5625,18.09375 -1.25252,6.74901 -1.12259,14.11752 -0.84375,24.625 0.27794,10.50746 0.68705,24.15121 0.0625,34.9375 -0.62537,10.78541 -2.28763,18.72256 -5.90625,25.125 -3.6186,6.4016 -9.18314,11.2539 -14.75,16.125 4.45332,0.2789 8.88918,0.54745 13.96875,-0.21875 5.07959,-0.7644 10.78844,-2.5702 15.9375,-5.5625 5.14994,-2.9923 9.7634,-7.16005 13.3125,-12.03125 3.54822,-4.87107 6.03815,-10.44197 7.5,-11.625 1.461,-1.18306 1.87947,2.02826 3.0625,5.4375 1.18216,3.40925 3.13394,7.0134 5.5,10.5625 2.36607,3.5491 5.15363,7.05165 7.9375,10.53125 2.64404,-2.6449 5.27622,-5.30245 7.78125,-8.78125 2.50505,-3.4796 4.87947,-7.77695 6.0625,-11.8125 1.18304,-4.0364 1.18866,-7.79155 2.09375,-8 0.90422,-0.20842 2.69643,3.12897 5.0625,6.46875 2.36609,3.34065 5.28641,6.66275 9.53125,10.28125 4.24397,3.6187 9.83355,7.53315 16.375,9.96875 6.54054,2.4346 14.04749,3.3969 20.03125,3.1875 5.98469,-0.2084 10.43866,-1.59835 11.34375,0.28125 0.47122,0.9787 -0.0511,2.83845 -1.1875,5.09375 l -184.21875,0 c -9.07483,-9.4368 -19.1698,-21.6266 -26.96875,-33.96875 -8.00242,-12.66421 -13.56925,-25.47786 -16.5625,-41.34375 -2.99144,-15.865 -3.42248,-34.77398 -1.125,-50.5 2.2957,-15.72603 7.30745,-28.27486 9.8125,-32.9375 2.50503,-4.66177 2.51474,-1.44059 3.90625,3.5 1.39148,4.94061 4.16928,11.59878 8.34375,17.375 4.17538,5.77533 9.75592,10.66849 15.53125,13.3125 5.77531,2.64403 11.7674,3.0601 18.65625,2.78125 6.88888,-0.27794 14.68186,-1.24941 20.875,-4.9375 6.19311,-3.68718 10.76718,-10.10036 12.4375,-18.9375 1.66943,-8.83715 0.40875,-20.10229 -0.84375,-31.375 -0.97371,3.2008 -1.93944,6.39411 -4.375,10.5 -2.43466,4.10588 -6.31476,9.11664 -12.4375,11.34375 -6.12365,2.22711 -14.50226,1.65693 -20.625,-3.5625 -6.12364,-5.21855 -10.00359,-15.08512 -11.1875,-24.6875 -1.18216,-9.60238 0.33608,-18.94273 5.625,-29.9375 5.28804,-10.99386 14.34737,-23.65449 26.59375,-34.71875 12.24729,-11.0642 27.70534,-20.50715 40.71875,-25.65625 8.94548,-3.5401 16.73749,-5.04395 21.84375,-5.09375 z"
       style="fill:#dcdcdc;fill-opacity:1;fill-rule:evenodd;stroke:#0a0bff;stroke-width:1;stroke-linecap:round;stroke-linejoin:round;stroke-miterlimit:4;stroke-opacity:1;stroke-dasharray:none" />
    <path
       id="path9807"
       d="m 358.26728,428.18844 c 0.93363,-0.01 1.9121,0.067 2.96875,0.25 5.63726,0.9745 13.28624,4.7399 23.375,9.75 10.09058,5.0101 22.62163,11.29295 34.9375,16.09375 12.31676,4.8016 24.41992,8.11635 39.9375,10.96875 15.51755,2.85336 34.45196,5.21509 51.5,5.5625 17.04804,0.34833 32.22361,-1.31328 43.84375,-2.84375 11.62101,-1.53046 19.68169,-2.90882 20.65625,-0.125 0.97371,2.78299 -5.14286,9.72913 -9.875,16.6875 -4.73125,6.95834 -8.0793,13.92772 -10.375,22.625 -2.2966,8.69819 -3.55144,19.13364 -1.8125,28.875 1.74069,9.74223 6.46553,18.78493 11.75,24.75 5.28447,5.96596 11.13285,8.86634 16.96875,11.75 -41.69048,34.65994 -78.79086,74.65467 -110.25,118.9375 2.80081,-11.2193 5.61564,-22.44241 7.78125,-33.6875 2.16655,-11.24686 3.67023,-22.51217 3.53125,-37.75 -0.13903,-15.23961 -1.93051,-34.44965 -2,-49.6875 -0.0711,-15.23961 1.5887,-26.53327 4.09375,-35.71875 2.50505,-9.18458 5.85106,-16.2827 9.46875,-20.875 3.6186,-4.59228 7.52611,-6.65704 11.5625,-8.1875 4.03552,-1.53137 8.20178,-2.50493 11.75,-1.53125 3.54913,0.97459 6.4843,3.89055 9.40625,6.8125 -2.2262,-7.37527 -4.47101,-14.76212 -10.59375,-18.9375 -6.12364,-4.17535 -16.15219,-5.14151 -25.40625,-3.75 -9.25586,1.39148 -17.73038,5.15682 -24.0625,9.75 -6.3321,4.59227 -10.51212,9.99564 -14.6875,15.5625 -4.17447,5.56598 -8.33124,11.29726 -13.0625,12.0625 -4.73214,0.76611 -10.03251,-3.41849 -17.6875,-6.0625 -7.65411,-2.64401 -17.66411,-3.76031 -25.875,-3.96875 -8.21089,-0.20943 -14.6321,0.49303 -21.3125,0.5625 -6.67953,0.0704 -13.63756,-0.4962 -19.96875,-2.375 -6.333,-1.87878 -12.02114,-5.09064 -17.03125,-10.03125 -5.0101,-4.94059 -9.33298,-11.59805 -11.28125,-18.625 -1.94827,-7.02874 -1.54769,-14.42821 -0.15625,-20.96875 1.39148,-6.5415 3.7667,-12.23615 7.59375,-17.59375 3.82706,-5.3585 9.10918,-10.37195 13.5625,-13.78125 3.61832,-2.7707 6.70425,-4.4774 10.75,-4.5 z"
       style="fill:#dcdcdc;fill-opacity:1;fill-rule:evenodd;stroke:#0a0bff;stroke-width:1;stroke-linecap:round;stroke-linejoin:round;stroke-miterlimit:4;stroke-opacity:1;stroke-dasharray:none" />
    <path
       id="path9805"
       d="M979.01728 488.03219C979.01728 488.03219 979.01728 505.645425538 979.01728 530.756971494C979.01728 543.506857897 979.01728 558.189732245 979.01728 573.481675988C979.01728 587.55125793 979.01728 602.136429034 979.01728 616.20605135C979.01728 631.497993806 979.01728 646.180918159 979.01728 658.930917589C979.01728 684.043257306 979.01728 701.65719 979.01728 701.65719C979.01728 701.65719 960.078408766 701.65719 930.0529461 701.65719C915.915733153 701.65719 899.320721982 701.65719 881.087542956 701.65719C865.760735415 701.65719 849.276385187 701.65719 832.121331948 701.65719C816.245159259 701.65719 799.794555735 701.65719 783.155396869 701.65719C766.893566077 701.65719 750.45163476 701.65719 734.189817595 701.65719C717.550644891 701.65719 701.100042425 701.65719 685.223887623 701.65719C668.069447874 701.65719 651.585684325 701.65719 636.259388507 701.65719C618.026380776 701.65719 601.43151343 701.65719 587.294394775 701.65719C557.268769344 701.65719 538.32978 701.65719 538.32978 701.65719C545.279576366 686.828723448 552.963085217 673.461975513 561.281256548 661.389868769C570.473049797 648.049880345 580.439817871 636.290754765 591.04790994 625.887049976C602.4032224 614.750521574 614.493388933 605.167087238 627.154480046 596.86023091C640.215327245 588.291097316 653.883720449 581.080426638 667.97970722 574.924675331C682.154800783 568.734377898 696.762300697 563.610873494 711.619207804 559.245479373C726.444578738 554.889351502 741.518299175 551.288118909 756.658532821 548.135060365C771.860083543 544.969232115 787.128687314 542.255215424 802.2802896 539.682547341C817.716338219 537.061581659 833.030951098 534.587321576 848.029511921 531.931488539C863.598354145 529.174674334 878.826653276 526.222216993 893.496738885 522.706950316C908.995999502 518.992995549 923.872161171 514.650811814 937.868518831 509.247389343C952.66989116 503.533183561 966.487343372 496.63215193 979.01728 488.03219C979.01728 488.03219 979.01728 488.03219 979.01728 488.03219"
       style="fill:#dcdcdc;fill-opacity:1;fill-rule:evenodd;stroke:#0a0bff;stroke-width:1;stroke-linecap:round;stroke-linejoin:round;stroke-miterlimit:4;stroke-opacity:1;stroke-dasharray:none" />
    <path
       id="path9474"
       d="m 371.14228,552.03219 c 6.11118,0.0347 12.62188,1.06959 19.53125,3.8125 6.90846,2.74201 14.19505,7.18075 20.6875,12.875 6.49247,5.69337 12.19438,12.65314 16.8125,19.5625 4.61722,6.90937 8.17332,13.76782 10.1875,22.03125 2.01241,8.26256 2.49007,17.9108 1.65625,26.625 -0.83294,8.71421 -2.98632,16.49376 -5.625,22.8125 -2.63865,6.31874 -5.77731,11.19424 -9.5625,14.5625 -3.78342,3.36735 -8.20188,5.2219 -13.375,5.8125 -5.17312,0.5907 -11.08755,-0.09 -15.84375,-2.9375 -4.75622,-2.8462 -8.36708,-7.84448 -10,-15.65625 -1.63113,-7.81179 -1.26729,-18.43446 -1.40625,-29.71875 -0.13903,-11.2825 -0.77787,-23.23692 -3.625,-32.4375 -2.84625,-9.20062 -7.92744,-15.64656 -13.34375,-20.4375 -5.41543,-4.79097 -11.182,-7.92699 -16.25,-9.59375 -5.06888,-1.66588 -9.42054,-1.87813 -11.78125,-2.46875 -2.36074,-0.58974 -2.7268,-1.56264 -2.34375,-2.8125 0.38127,-1.24895 1.48963,-2.76466 4.40625,-4.5 2.91483,-1.73628 7.63589,-3.69794 12.84375,-5.15625 5.20696,-1.45741 10.92098,-2.40975 17.03125,-2.375 z"
       style="fill:#dcdcdc;fill-opacity:1;fill-rule:evenodd;stroke:#0a0bff;stroke-width:1;stroke-linecap:round;stroke-linejoin:round;stroke-miterlimit:4;stroke-opacity:1;stroke-dasharray:none" />
    <path
       transform="translate(0,-435.82679)"
       d="m 60,58.188965 c 0,2.761424 -2.238576,5 -5,5 -2.761424,0 -5,-2.238576 -5,-5 0,-2.761424 2.238576,-5 5,-5 2.761424,0 5,2.238576 5,5 z"
       sodipodi:ry="5"
       sodipodi:rx="5"
       sodipodi:cy="58.188965"
       sodipodi:cx="55"
       id="path2870"
       style="color:#000000;fill:#ff0000;fill-opacity:1;fill-rule:nonzero;stroke:none;stroke-width:40;marker:none;visibility:visible;display:inline;overflow:visible;enable-background:accumulate"
       sodipodi:type="arc" />
  </g>
  <g
     style="display:inline"
     inkscape:label="1 copy"
     id="g6123"
     inkscape:groupmode="layer" />
  <g
     inkscape:groupmode="layer"
     id="layer2"
     inkscape:label="1"
     style="display:inline" />
</svg>
