M48
;DRILL file {Pcbnew (2013-07-07 BZR 4022)-stable} date 22.10.2013 19:42:18
;FORMAT={-:-/ absolute / metric / decimal}
FMAT,2
METRIC,TZ
T1C0.600
T2C0.900
T3C2.400
%
G90
G05
M71
T1
X3.493Y59.372
X3.493Y51.752
X3.493Y49.212
X3.493Y41.593
X3.493Y39.052
X3.493Y31.432
X3.493Y28.892
X3.493Y21.272
X3.493Y18.732
X3.493Y11.112
X19.558Y36.068
X19.558Y33.528
X23.495Y38.735
X23.495Y36.195
X23.495Y33.655
X23.495Y31.115
X23.495Y28.575
X23.495Y26.035
X23.495Y23.495
X23.495Y20.955
X36.195Y38.735
X36.195Y36.195
X36.195Y33.655
X36.195Y31.115
X36.195Y28.575
X36.195Y26.035
X36.195Y23.495
X36.195Y20.955
X36.83Y65.278
X37.465Y50.8
X37.465Y43.18
X39.37Y65.278
X40.005Y28.575
X40.005Y26.035
X40.005Y23.495
X41.91Y50.8
X41.91Y43.18
X42.545Y28.575
X42.545Y26.035
X42.545Y23.495
X42.545Y13.97
X42.545Y11.43
X43.434Y66.802
X45.085Y36.195
X46.355Y50.8
X46.355Y43.18
X46.99Y13.97
X46.99Y11.43
X47.625Y36.195
X50.8Y50.8
X50.8Y43.18
X51.054Y66.802
X51.435Y38.735
X51.435Y36.195
X51.435Y33.655
X51.435Y31.115
X51.435Y28.575
X51.435Y26.035
X51.435Y23.495
X51.435Y20.955
X58.42Y66.04
X58.42Y63.5
X60.96Y66.04
X60.96Y63.5
X63.5Y66.04
X63.5Y63.5
X64.135Y38.735
X64.135Y36.195
X64.135Y33.655
X64.135Y31.115
X64.135Y28.575
X64.135Y26.035
X64.135Y23.495
X64.135Y20.955
X64.77Y50.8
X64.77Y43.18
X66.04Y66.04
X66.04Y63.5
X67.945Y28.575
X67.945Y26.035
X67.945Y23.495
X68.58Y66.04
X68.58Y63.5
X69.215Y50.8
X69.215Y43.18
X70.485Y28.575
X70.485Y26.035
X70.485Y23.495
X70.485Y13.97
X70.485Y11.43
X71.12Y66.04
X71.12Y63.5
X73.025Y36.195
X73.66Y66.04
X73.66Y63.5
X73.66Y50.8
X73.66Y43.18
X74.93Y13.97
X74.93Y11.43
X75.565Y36.195
X76.2Y66.04
X76.2Y63.5
X78.105Y50.8
X78.105Y43.18
X78.74Y66.04
X78.74Y63.5
X79.375Y38.735
X79.375Y36.195
X79.375Y33.655
X79.375Y31.115
X79.375Y28.575
X79.375Y26.035
X79.375Y23.495
X79.375Y20.955
X81.28Y66.04
X81.28Y63.5
X91.186Y66.04
X91.186Y63.246
X92.075Y38.735
X92.075Y36.195
X92.075Y33.655
X92.075Y31.115
X92.075Y28.575
X92.075Y26.035
X92.075Y23.495
X92.075Y20.955
X92.71Y50.8
X92.71Y43.18
X95.885Y28.575
X95.885Y26.035
X95.885Y23.495
X97.155Y50.8
X97.155Y43.18
X98.425Y28.575
X98.425Y26.035
X98.425Y23.495
X98.425Y13.97
X98.425Y11.43
X98.552Y65.278
X100.965Y36.195
X101.092Y65.278
X101.6Y50.8
X101.6Y43.18
X102.87Y13.97
X102.87Y11.43
X103.505Y36.195
X106.045Y51.435
X106.045Y43.815
X107.315Y38.735
X107.315Y36.195
X107.315Y33.655
X107.315Y31.115
X107.315Y28.575
X107.315Y26.035
X107.315Y23.495
X107.315Y20.955
X120.015Y38.735
X120.015Y36.195
X120.015Y33.655
X120.015Y31.115
X120.015Y28.575
X120.015Y26.035
X120.015Y23.495
X120.015Y20.955
X123.825Y28.575
X123.825Y26.035
X123.825Y23.495
X124.206Y64.77
X124.206Y59.69
X124.206Y53.34
X124.206Y50.8
X126.365Y28.575
X126.365Y26.035
X126.365Y23.495
X126.365Y13.97
X126.365Y11.43
X127.254Y46.99
X127.254Y39.37
X130.048Y31.496
X130.048Y23.876
X130.81Y13.97
X130.81Y11.43
X131.572Y65.532
X131.572Y57.912
X132.334Y42.926
X133.858Y57.15
X133.858Y24.13
X135.636Y13.97
X135.636Y11.43
X144.018Y13.97
X144.018Y8.89
X146.812Y69.088
X151.13Y16.256
X152.4Y13.462
X152.4Y10.922
X153.67Y16.256
T2
X23.495Y6.35
X27.305Y6.35
X32.385Y6.35
X36.195Y6.35
X51.435Y6.35
X55.245Y6.35
X60.325Y6.35
X64.135Y6.35
X79.375Y6.35
X83.185Y6.35
X88.265Y6.35
X92.075Y6.35
X107.315Y6.35
X111.125Y6.35
X111.633Y62.23
X115.443Y62.23
X116.205Y6.35
X120.015Y6.35
X131.953Y6.35
X135.763Y6.35
X136.677Y26.67
X136.703Y59.665
X136.703Y43.155
X138.684Y32.639
X138.684Y20.701
X138.709Y65.634
X138.709Y53.696
X138.709Y49.124
X138.709Y37.186
X150.876Y32.639
X150.876Y20.701
X150.901Y65.634
X150.901Y53.696
X150.901Y49.124
X150.901Y37.186
X158.75Y56.261
X158.75Y52.451
X158.75Y43.307
X158.75Y39.497
X158.75Y27.051
X158.75Y23.241
X158.75Y18.161
X158.75Y14.351
T3
X7.62Y65.405
X7.62Y5.08
X29.845Y50.8
X29.845Y15.24
X57.785Y50.8
X57.785Y15.24
X85.725Y50.8
X85.725Y34.925
X85.725Y15.24
X113.665Y50.8
X113.665Y15.24
X158.115Y65.405
X158.115Y5.08
T2
X9.207Y57.467
X9.207Y53.657
X9.207Y47.307
X9.207Y43.497
X9.207Y37.148
X9.207Y33.337
X9.207Y26.987
X9.207Y23.177
X9.207Y16.828
X9.207Y13.018
T0
M30
